<svg xmlns="http://www.w3.org/2000/svg" viewBox="0 0 400 400" fill="none" shape-rendering="auto" width="512" height="512"><metadata xmlns:rdf="http://www.w3.org/1999/02/22-rdf-syntax-ns#" xmlns:xsi="http://www.w3.org/2001/XMLSchema-instance" xmlns:dc="http://purl.org/dc/elements/1.1/" xmlns:dcterms="http://purl.org/dc/terms/"><rdf:RDF><rdf:Description><dc:title>Adventurer Neutral</dc:title><dc:creator>Lisa Wischofsky</dc:creator><dc:source xsi:type="dcterms:URI">https://www.figma.com/community/file/1184595184137881796</dc:source><dcterms:license xsi:type="dcterms:URI">https://creativecommons.org/licenses/by/4.0/</dcterms:license><dc:rights>Remix of „Adventurer Neutral" (https://www.figma.com/community/file/1184595184137881796) by „Lisa Wischofsky", licensed under „CC BY 4.0" (https://creativecommons.org/licenses/by/4.0/)</dc:rights></rdf:Description></rdf:RDF></metadata><mask id="viewboxMask"><rect width="400" height="400" rx="0" ry="0" x="0" y="0" fill="#fff" /></mask><g mask="url(#viewboxMask)"><rect fill="#f2d3b1" width="400" height="400" x="0" y="0" /><g transform="translate(-279 -322)"><path d="M562.01 467.8c1.68 0 3.23.31 4.88.58-.28 2.28.34 4.36-2.64 4.8-9.4.76-18.83 1.45-28.25 2.06-4.32.2-8.78 1.16-13.1.84-1.94-.79-2.62-2-2.03-4.1 1.45-1.38 3.19-1.54 5.1-1.69 12.02-.64 24-1.86 36.04-2.5ZM396.33 481.31c1.23 1.24 2.2 1.91 2.08 3.85-1.42 2.52-4.9 2.05-7.38 2.36-8.05.21-16.06 1.68-24.09 1.71-2.7-.36-2.11-2.53-2.53-4.58 10.33-2.64 21.37-1.79 31.93-3.34ZM618.89 483.07c1.04.75 2.08 1.48 3.13 2.22a65.59 65.59 0 0 1-9.93 38.78 65.45 65.45 0 0 1-24.32 22.73c-14.52 7.96-32.32 9.86-48.26 5.44a65.36 65.36 0 0 1-35.32-24.4 63.91 63.91 0 0 1-12.38-33.97c2.1-3.32 5.74-3 9.17-3.26 30.68-2.1 61.35-4.13 92.02-6.22 8.7-.2 17.2-1.64 25.89-1.32Z" fill="#000"/><path d="M616.28 488.65c.74 20.78-11.03 41.27-28.85 51.8-11.82 6.93-25.88 9.98-39.46 7.75a59.72 59.72 0 0 1-35.27-18.9c-8.02-8.88-13.6-20.53-14.76-32.49 11.17-1.23 22.38-1.67 33.58-2.63.38 8.47 1.87 17.19 5.2 25.03 1.89 4.28 5.29 10.07 10.23 11.13 4.79.85 7.97-2.58 9.97-6.45 4.58-9.28 4-21.5 3.22-31.56 18.7-1.25 37.42-2.66 56.14-3.67Z" fill="#fff"/><path d="M415.01 499.71c8.1-.69 16.13-1.44 24.27-1.05.87.83 1.75 1.67 2.64 2.49.19 16-6.7 31.57-18.78 42.06a54.81 54.81 0 0 1-42.17 13.2 54.34 54.34 0 0 1-30.73-13.64 55.18 55.18 0 0 1-17.98-34.89c1.04-.88 2.19-2.68 3.63-2.82 13.04-1.6 26.05-1.69 39.11-2.95 13.35-.64 26.66-1.71 40-2.4Z" fill="#000"/><path d="M436.36 504.29c-.69 5.07-1.44 9.93-3.28 14.74a49.5 49.5 0 0 1-22.2 25.81 51 51 0 0 1-23.88 6.33 49.93 49.93 0 0 1-35.25-14.93 49.66 49.66 0 0 1-13.37-25.88 1021.4 1021.4 0 0 1 34.1-2.24c-.06 7.18.95 14.37 4.79 20.58 1.69 2.6 4.35 5.19 7.69 5 3.57-.14 6.11-3.3 7.5-6.28 2.85-6.64 2.88-13.67 2.25-20.74 13.86-.8 27.77-2.18 41.65-2.39Z" fill="#fff"/></g><g transform="translate(-279 -322)"><path d="M568.44 405.96c-.6-2.92-2.48-4.87-4.6-6.82-11.98-10.95-29.88-15.87-45.64-11.58-9.72 2.4-18.51 8.36-23.63 17.06-2.83 5.03-4.78 10.54-3.98 16.4.08.42.13.83.18 1.23.2 1.63.37 3 2.44 3.54 2.17.12 4.4-.29 6.54-.68l.31-.06 6.22-1.2c5.24-1 10.48-2 15.68-3.19a640.08 640.08 0 0 0 44.88-11.08c1.77-.25 1.7-1.62 1.63-3.02l-.03-.6ZM430.1 431.05c-.81-9.8-8.9-17.41-17.88-20.31a39.68 39.68 0 0 0-38.34 9.13c-4.45 4.18-8.39 9.97-9.12 16.14-.08 2.74 2.36 2.78 4.44 2.82.26 0 .52 0 .77.02 3.02-.08 6.05-.14 9.07-.2 9.34-.17 18.7-.35 27.98-1.3 2.4-.21 4.83-.38 7.24-.54 4.26-.3 8.52-.58 12.74-1.14 2.42.03 3.28-2.6 3.1-4.62Z" fill="#000"/></g><g transform="translate(-279 -322)"><path d="M522.82 563.04c10.94 1.36 21.85 6.96 27.22 16.95 3.39 6.26 4.89 14.23 3.3 21.22-1.46 10.35-7.53 20.05-14.5 27.62a76.94 76.94 0 0 1-44.81 23.04 92.7 92.7 0 0 1-42.88-3c-8.75-2.81-16.6-7.54-23.81-13.16-8.31-6.76-15.78-15.35-19.58-25.48a33.06 33.06 0 0 1-1.77-17.28c1.2-6.9 6.43-12.62 12.81-15.26a36.97 36.97 0 0 1 21.19-1.83c9.02 1.21 16.75 5.04 24.7 9.17 14.67-15.16 36.94-24.58 58.13-22Z" fill="#000"/><path d="M518 568.55c8.8.31 17.43 3.3 23.68 9.68-3 3.63-6.83 6.32-11 8.45-1.69.91-3.64 1.7-5.06 3-2.43 2.96-3.61 8.2-6.65 10.48-3.54-1.12-6.78-3.83-9.93-5.8a175.42 175.42 0 0 1-44.04 4.58c-11.05.23-22.04-.67-32.94-2.47-1.81-.27-4.09-1-5.85-.33-2.18 1.44-3.94 3.6-5.81 5.4-1.83-2.83-3.68-5.66-5.46-8.54l-2.73-1.25c2.73-6 8.37-9.5 14.77-10.37 11.68-1.64 24.09 2.63 34 8.6 1.96 1.02 3.62 2.33 5.79.88 2.83-2.16 5.16-4.92 8-7.08 11.96-9.59 27.77-15.96 43.23-15.23Z" fill="#fff"/><path d="M545.34 583.32a29.2 29.2 0 0 1 2.14 17.66c-1.97 9.52-7.06 17.79-13.83 24.66-10.82 11.28-26.42 18.1-41.67 20.62-11.17 1.37-23.03 1.31-33.94-1.69-14.7-3.87-28.12-12.06-37.6-24.04-5.22-6.78-9.17-14.14-9.37-22.9 2.6 2.67 3.87 6.23 6.31 8.96 4.2 3.28 7.73-2.11 10.5-4.66 17.64 2.5 36.38 4.36 54.12 2.36 8.82-.4 17.5-1.87 26.14-3.56 3.7 1.43 8.33 5.92 12.7 4.94 6.03-2.25 6.05-11.84 12.25-13.61a42.73 42.73 0 0 0 10.12-6.82l2.13-1.92Z" fill="#8F2E45"/></g><g transform="translate(-279 -322)"></g></g></svg>